{
  "accessors": [
    {
      "bufferView": 2,
      "componentType": 5126,
      "count": 12139,
      "max": [
        0.14111429452896118,
        0.11583840101957321,
        1.771172046661377
      ],
      "min": [
        -0.142193004488945,
        -0.12539930641651154,
        1.5065339803695679
      ],
      "type": "VEC3"
    },
    {
      "bufferView": 2,
      "byteOffset": 145668,
      "componentType": 5126,
      "count": 12139,
      "max": [
        0.9998890161514282,
        0.99991375207901,
        0.9995709657669067
      ],
      "min": [
        -0.999958872795105,
        -0.9993407130241394,
        -0.9998451471328735
      ],
      "type": "VEC3"
    },
    {
      "bufferView": 1,
      "componentType": 5126,
      "count": 12139,
      "max": [
        0.9970800280570984,
        0.9899998903274536
      ],
      "min": [
        0.0,
        0.0
      ],
      "type": "VEC2"
    },
    {
      "bufferView": 0,
      "componentType": 5125,
      "count": 38184,
      "type": "SCALAR"
    }
  ],
  "asset": {
    "extras": {
      "author": "vicentw66 (https://sketchfab.com/vicentw66)",
      "license": "CC-BY-4.0 (http://creativecommons.org/licenses/by/4.0/)",
      "source": "https://sketchfab.com/3d-models/hair-cc203ee352074c69b8b10e7b915194da",
      "title": "Hair"
    },
    "generator": "Sketchfab-12.82.3",
    "version": "2.0"
  },
  "bufferViews": [
    {
      "buffer": 0,
      "byteLength": 152736,
      "name": "floatBufferViews",
      "target": 34963
    },
    {
      "buffer": 0,
      "byteLength": 97112,
      "byteOffset": 152736,
      "byteStride": 8,
      "name": "floatBufferViews",
      "target": 34962
    },
    {
      "buffer": 0,
      "byteLength": 291336,
      "byteOffset": 249848,
      "byteStride": 12,
      "name": "floatBufferViews",
      "target": 34962
    }
  ],
  "buffers": [
    {
      "byteLength": 541184,
      "uri": "scene.bin"
    }
  ],
  "materials": [
    {
      "doubleSided": true,
      "name": "material_0",
      "pbrMetallicRoughness": {
        "metallicFactor": 0.0,
        "roughnessFactor": 0.6
      }
    }
  ],
  "meshes": [
    {
      "name": "Object_0",
      "primitives": [
        {
          "attributes": {
            "NORMAL": 1,
            "POSITION": 0,
            "TEXCOORD_0": 2
          },
          "indices": 3,
          "material": 0,
          "mode": 4
        }
      ]
    }
  ],
  "nodes": [
    {
      "children": [
        1
      ],
      "matrix": [
        1.0,
        0.0,
        0.0,
        0.0,
        0.0,
        2.220446049250313e-16,
        -1.0,
        0.0,
        0.0,
        1.0,
        2.220446049250313e-16,
        0.0,
        0.0,
        0.0,
        0.0,
        1.0
      ],
      "name": "Sketchfab_model"
    },
    {
      "children": [
        2
      ],
      "name": "Hair 2.obj.cleaner.materialmerger.gles"
    },
    {
      "mesh": 0,
      "name": "Object_2"
    }
  ],
  "scene": 0,
  "scenes": [
    {
      "name": "Sketchfab_Scene",
      "nodes": [
        0
      ]
    }
  ]
}
