{
  "accessors": [
    {
      "bufferView": 2,
      "componentType": 5126,
      "count": 4980,
      "max": [
        0.11074770241975784,
        0.1142508015036583,
        1.7891490459442139
      ],
      "min": [
        -0.13091060519218445,
        -0.1527957022190094,
        1.5341320037841797
      ],
      "type": "VEC3"
    },
    {
      "bufferView": 2,
      "byteOffset": 59760,
      "componentType": 5126,
      "count": 4980,
      "max": [
        0.9999657869338989,
        0.9999001622200012,
        0.9930106401443481
      ],
      "min": [
        -0.9996160268783569,
        -0.9997859597206116,
        -0.9978880882263184
      ],
      "type": "VEC3"
    },
    {
      "bufferView": 1,
      "componentType": 5126,
      "count": 4980,
      "max": [
        0.5555555820465088,
        0.9899998903274536
      ],
      "min": [
        0.0,
        0.0
      ],
      "type": "VEC2"
    },
    {
      "bufferView": 0,
      "componentType": 5125,
      "count": 17112,
      "type": "SCALAR"
    }
  ],
  "asset": {
    "extras": {
      "author": "vicentw66 (https://sketchfab.com/vicentw66)",
      "license": "CC-BY-4.0 (http://creativecommons.org/licenses/by/4.0/)",
      "source": "https://sketchfab.com/3d-models/hair-156ff1b4656e48a69d8bd3956721efab",
      "title": "Hair"
    },
    "generator": "Sketchfab-12.94.0",
    "version": "2.0"
  },
  "bufferViews": [
    {
      "buffer": 0,
      "byteLength": 68448,
      "name": "floatBufferViews",
      "target": 34963
    },
    {
      "buffer": 0,
      "byteLength": 39840,
      "byteOffset": 68448,
      "byteStride": 8,
      "name": "floatBufferViews",
      "target": 34962
    },
    {
      "buffer": 0,
      "byteLength": 119520,
      "byteOffset": 108288,
      "byteStride": 12,
      "name": "floatBufferViews",
      "target": 34962
    }
  ],
  "buffers": [
    {
      "byteLength": 227808,
      "uri": "scene.bin"
    }
  ],
  "materials": [
    {
      "doubleSided": true,
      "name": "material_0",
      "pbrMetallicRoughness": {
        "metallicFactor": 0.0,
        "roughnessFactor": 0.6
      }
    }
  ],
  "meshes": [
    {
      "name": "Object_0",
      "primitives": [
        {
          "attributes": {
            "NORMAL": 1,
            "POSITION": 0,
            "TEXCOORD_0": 2
          },
          "indices": 3,
          "material": 0,
          "mode": 4
        }
      ]
    }
  ],
  "nodes": [
    {
      "children": [
        1
      ],
      "matrix": [
        1.0,
        0.0,
        0.0,
        0.0,
        0.0,
        2.220446049250313e-16,
        -1.0,
        0.0,
        0.0,
        1.0,
        2.220446049250313e-16,
        0.0,
        0.0,
        0.0,
        0.0,
        1.0
      ],
      "name": "Sketchfab_model"
    },
    {
      "children": [
        2
      ],
      "name": "def2ddd0dd0248a080ecaa118021f3fb.obj.cleaner.materialmerger.gles"
    },
    {
      "mesh": 0,
      "name": "Object_2"
    }
  ],
  "scene": 0,
  "scenes": [
    {
      "name": "Sketchfab_Scene",
      "nodes": [
        0
      ]
    }
  ]
}
